# xmcd
#
# Track frame offsets: 
#        150
#        6418
#        24856
#        43517
#        66079
#        84523
#        102367
#        118575
#        139755
#        159216
#        180517
#        206151
#
# Disc length: 3034 seconds
#
# Revision: 1
# Processed by: cddbd v1.5.2PL0 Copyright (c) Steve Scherf et al.
# Submitted via: ExactAudioCopyFreeDBPlugin 1.0
#
DISCID=950bd80c
DTITLE=流田Project - 流田P
DYEAR=2010
DGENRE=JPop
TTITLE0=総帥のテーマ
TTITLE1=only my railgun
TTITLE2=JOINT
TTITLE3=Re-sublimity
TTITLE4=Real Force
TTITLE5=LEVEL5 -judgelight-
TTITLE6=悲しい星座
TTITLE7=God knows...
TTITLE8=Super Driver
TTITLE9=旅の途中
TTITLE10=君の知らない物語
TTITLE11=only my railgun ～総帥リミテッド～
EXTD=
EXTT0=
EXTT1=
EXTT2=
EXTT3=
EXTT4=
EXTT5=
EXTT6=
EXTT7=
EXTT8=
EXTT9=
EXTT10=
EXTT11=
PLAYORDER=
